<?xml version="1.0" encoding="UTF-8"?>
<!DOCTYPE svg PUBLIC "-//W3C//DTD SVG 1.1//EN" "http://www.w3.org/Graphics/SVG/1.1/DTD/svg11.dtd">
<!-- Creator: CorelDRAW X7 -->
<svg xmlns="http://www.w3.org/2000/svg" xml:space="preserve" width="116px" height="116px" version="1.1" style="shape-rendering:geometricPrecision; text-rendering:geometricPrecision; image-rendering:optimizeQuality; fill-rule:evenodd; clip-rule:evenodd"
viewBox="0 0 163 163"
 xmlns:xlink="http://www.w3.org/1999/xlink">
 <defs>
  <style type="text/css">
   <![CDATA[
    .fil0 {fill:url(#id0)}
   ]]>
  </style>
  <linearGradient id="id0" gradientUnits="userSpaceOnUse" x1="18.6319" y1="105.212" x2="144.416" y2="57.6871">
   <stop offset="0" style="stop-opacity:1; stop-color:#31C2DD"/>
   <stop offset="1" style="stop-opacity:1; stop-color:#0B9BD7"/>
  </linearGradient>
 </defs>
 <g id="Layer_x0020_1">
  <metadata id="CorelCorpID_0Corel-Layer"/>
  <path class="fil0" d="M50 2c-41,19 -62,68 -42,112 18,41 67,61 112,41 19,-8 31,-21 41,-37 1,-3 4,-7 0,-8 -2,-1 -6,1 -9,1 -3,1 -6,2 -9,2 -6,1 -11,1 -17,1 -7,0 -16,-2 -22,-5 -2,0 -3,0 -4,-1 -3,-2 -2,-1 -3,-2 -30,-14 -50,-46 -43,-83 0,-3 1,-5 1,-7l4 -11c1,-1 1,-3 0,-4 -2,-2 -6,0 -9,1z"/>
 </g>
</svg>
