<?xml version="1.0" encoding="UTF-8"?>
<!DOCTYPE svg PUBLIC "-//W3C//DTD SVG 1.1//EN" "http://www.w3.org/Graphics/SVG/1.1/DTD/svg11.dtd">
<!-- Creator: CorelDRAW X7 -->
<svg xmlns="http://www.w3.org/2000/svg" xml:space="preserve" width="140px" height="139px" version="1.1" style="shape-rendering:geometricPrecision; text-rendering:geometricPrecision; image-rendering:optimizeQuality; fill-rule:evenodd; clip-rule:evenodd"
viewBox="0 0 12 12"
 xmlns:xlink="http://www.w3.org/1999/xlink">
 <defs>
  <style type="text/css">
   <![CDATA[
    .fil1 {fill:url(#id0)}
    .fil0 {fill:url(#id1)}
   ]]>
  </style>
  <linearGradient id="id0" gradientUnits="userSpaceOnUse" x1="6.88804" y1="9.0029" x2="4.90877" y2="10.9328">
   <stop offset="0" style="stop-opacity:1; stop-color:#31C2DD"/>
   <stop offset="1" style="stop-opacity:1; stop-color:#0B9BD7"/>
  </linearGradient>
  <linearGradient id="id1" gradientUnits="userSpaceOnUse" xlink:href="#id0" x1="9.34183" y1="0.434494" x2="2.45498" y2="7.14929">
  </linearGradient>
 </defs>
 <g id="Layer_x0020_1">
  <metadata id="CorelCorpID_0Corel-Layer"/>
  <g id="_625465936">
   <g>
    <path class="fil0" d="M9 2c0,0 0,0 0,0 -1,-1 -2,-2 -3,-2 -2,0 -3,1 -4,3 -1,0 -2,1 -2,2 0,1 1,2 2,2 0,1 0,1 0,1l7 0c0,0 1,0 1,-1 1,0 2,-1 2,-2 0,-2 -1,-3 -3,-3zm1 4l-1 0c0,1 0,1 0,1l-7 0c0,0 0,0 0,-1 -1,0 -1,0 -1,-1 0,-1 1,-1 1,-1 1,0 1,0 1,0l0 0 0 -1c0,-1 1,-2 3,-2 1,0 1,1 2,2l0 0 0 0c1,0 1,0 1,0 1,0 2,1 2,2 0,1 -1,1 -1,1z"/>
    <path class="fil1" d="M7 9l-1 0 0 0c0,0 0,-1 0,-1 0,0 0,0 -1,0l0 1c0,0 0,1 0,1 0,0 0,0 0,0l1 0 -1 1c0,0 0,1 0,1 0,0 0,0 1,0 0,0 0,0 0,0l1 -2c0,0 0,-1 0,-1 0,0 0,0 0,0z"/>
   </g>
  </g>
 </g>
</svg>
