<?xml version="1.0" encoding="UTF-8"?>
<!DOCTYPE svg PUBLIC "-//W3C//DTD SVG 1.1//EN" "http://www.w3.org/Graphics/SVG/1.1/DTD/svg11.dtd">
<!-- Creator: CorelDRAW X7 -->
<svg xmlns="http://www.w3.org/2000/svg" xml:space="preserve" width="140px" height="90px" version="1.1" style="shape-rendering:geometricPrecision; text-rendering:geometricPrecision; image-rendering:optimizeQuality; fill-rule:evenodd; clip-rule:evenodd"
viewBox="0 0 23 15"
 xmlns:xlink="http://www.w3.org/1999/xlink">
 <defs>
  <style type="text/css">
   <![CDATA[
    .fil0 {fill:url(#id0)}
   ]]>
  </style>
  <linearGradient id="id0" gradientUnits="userSpaceOnUse" x1="18.2571" y1="0.786758" x2="4.92612" y2="14.1177">
   <stop offset="0" style="stop-opacity:1; stop-color:#31C2DD"/>
   <stop offset="1" style="stop-opacity:1; stop-color:#0B9BD7"/>
  </linearGradient>
 </defs>
 <g id="Layer_x0020_1">
  <metadata id="CorelCorpID_0Corel-Layer"/>
  <g id="_625499952">
   <path class="fil0" d="M18 15l-13 0c-1,0 -1,0 -2,0 -2,-1 -3,-3 -3,-5 0,-3 2,-5 5,-5 0,-3 3,-5 6,-5 3,0 5,2 6,4 0,0 0,0 1,0 3,0 5,2 5,5 0,3 -1,5 -4,6 0,0 -1,0 -1,0l0 0zm-13 -8c-2,0 -3,1 -3,3 0,1 1,2 2,3 0,0 1,0 1,0l13 0c0,0 0,0 1,0l0 0c1,-1 2,-2 2,-4 0,-2 -1,-3 -3,-3 -1,0 -1,0 -2,0l-1 0 0 -1c0,-2 -2,-3 -4,-3 -2,0 -4,2 -4,4l0 1 -2 0c0,0 0,0 0,0l0 0z"/>
  </g>
 </g>
</svg>
