<?xml version="1.0" encoding="UTF-8"?>
<!DOCTYPE svg PUBLIC "-//W3C//DTD SVG 1.1//EN" "http://www.w3.org/Graphics/SVG/1.1/DTD/svg11.dtd">
<!-- Creator: CorelDRAW X7 -->
<svg xmlns="http://www.w3.org/2000/svg" xml:space="preserve" width="183px" height="111px" version="1.1" style="shape-rendering:geometricPrecision; text-rendering:geometricPrecision; image-rendering:optimizeQuality; fill-rule:evenodd; clip-rule:evenodd"
viewBox="0 0 219 132"
 xmlns:xlink="http://www.w3.org/1999/xlink">
 <defs>
  <style type="text/css">
   <![CDATA[
    .fil0 {fill:url(#id0)}
   ]]>
  </style>
  <linearGradient id="id0" gradientUnits="userSpaceOnUse" x1="170.652" y1="4.7369" x2="47.8799" y2="127.509">
   <stop offset="0" style="stop-opacity:1; stop-color:#31C2DD"/>
   <stop offset="1" style="stop-opacity:1; stop-color:#0B9BD7"/>
  </linearGradient>
 </defs>
 <g id="Layer_x0020_1">
  <metadata id="CorelCorpID_0Corel-Layer"/>
  <path class="fil0" d="M188 21c-1,0 -3,0 -4,0 -6,-13 -18,-21 -32,-21 -17,0 -31,12 -34,28 -5,0 -10,1 -14,4 -7,-5 -15,-8 -25,-8 -22,0 -40,16 -44,37 -20,1 -35,17 -35,36 0,15 10,29 25,34 3,1 6,1 10,1l94 0c4,0 7,0 11,-2 16,-5 28,-20 28,-38 0,-4 -1,-7 -2,-11l23 0c3,0 6,0 8,-1 13,-4 22,-16 22,-29 0,-17 -14,-30 -31,-30zm-53 95l0 0c-2,1 -4,1 -6,1l-94 0c-2,0 -4,0 -5,-1 -9,-2 -15,-10 -15,-19 0,-12 9,-21 20,-21 2,0 3,0 5,1l8 1 1 -9c0,-16 14,-30 30,-30 15,0 27,10 30,24l2 8 8 -3c3,-1 6,-1 8,-1 14,0 26,11 26,25 0,11 -7,21 -18,24zm59 -47c-2,1 -3,1 -5,1l-28 0c-7,-11 -19,-18 -34,-18 -2,0 -4,0 -6,0 -2,-4 -4,-8 -7,-12 1,-1 3,-1 5,-1 1,0 2,0 3,0l7 2 0 -7c0,-13 10,-23 23,-23 11,0 20,8 22,18l2 6 6 -2c2,-1 4,-1 6,-1 11,0 19,9 19,19 0,8 -5,16 -13,18z"/>
 </g>
</svg>
