<?xml version="1.0" encoding="UTF-8"?>
<!DOCTYPE svg PUBLIC "-//W3C//DTD SVG 1.1//EN" "http://www.w3.org/Graphics/SVG/1.1/DTD/svg11.dtd">
<!-- Creator: CorelDRAW X7 -->
<svg xmlns="http://www.w3.org/2000/svg" xml:space="preserve" width="187px" height="168px" version="1.1" style="shape-rendering:geometricPrecision; text-rendering:geometricPrecision; image-rendering:optimizeQuality; fill-rule:evenodd; clip-rule:evenodd"
viewBox="0 0 85 76"
 xmlns:xlink="http://www.w3.org/1999/xlink">
 <defs>
  <style type="text/css">
   <![CDATA[
    .fil0 {fill:url(#id0)}
    .fil1 {fill:url(#id1)}
    .fil2 {fill:url(#id2)}
    .fil3 {fill:url(#id3)}
   ]]>
  </style>
  <linearGradient id="id0" gradientUnits="userSpaceOnUse" x1="38.2542" y1="34.0699" x2="78.9859" y2="18.6803">
   <stop offset="0" style="stop-opacity:1; stop-color:#31C2DD"/>
   <stop offset="1" style="stop-opacity:1; stop-color:#0B9BD7"/>
  </linearGradient>
  <linearGradient id="id1" gradientUnits="userSpaceOnUse" xlink:href="#id0" x1="50.1361" y1="25.052" x2="13.5282" y2="61.6598">
  </linearGradient>
  <linearGradient id="id2" gradientUnits="objectBoundingBox" xlink:href="#id0" x1="90.1202%" y1="18.9663%" x2="9.87225%" y2="81.0337%">
  </linearGradient>
  <linearGradient id="id3" gradientUnits="userSpaceOnUse" xlink:href="#id0" x1="42.6954" y1="68.974" x2="37.004" y2="74.6653">
  </linearGradient>
 </defs>
 <g id="Layer_x0020_1">
  <metadata id="CorelCorpID_0Corel-Layer"/>
  <path class="fil0" d="M48 1c-13,6 -20,22 -13,36 6,13 22,20 36,13 6,-2 10,-6 13,-12 1,-1 2,-2 0,-3 0,0 -2,1 -3,1 0,0 -1,1 -2,1 -2,0 -4,0 -6,0 -2,0 -5,-1 -7,-2 -1,0 -1,0 -1,0 -1,-1 -1,0 -1,-1 -10,-4 -17,-15 -14,-27 0,0 0,-1 0,-2l1 -3c1,-1 1,-1 0,-2 0,0 -2,0 -3,1z"/>
  <path class="fil1" d="M49 64l-36 0c-1,0 -2,0 -3,-1 -6,-1 -10,-7 -10,-13 0,-7 6,-13 13,-13 2,-8 9,-14 17,-14 7,0 13,4 16,11 1,-1 2,-1 2,-1 9,0 16,7 16,16 0,6 -5,12 -11,14 -1,1 -3,1 -4,1l0 0z"/>
  <g id="_845712176">
   <path class="fil2" d="M29 68c-1,-1 -2,-1 -3,0l-3 5c0,1 0,3 1,3 0,0 1,0 1,0 1,0 2,0 2,-1l3 -5c0,-1 0,-2 -1,-2z"/>
   <path class="fil3" d="M42 68c-1,-1 -2,-1 -3,0l-2 5c-1,1 -1,3 0,3 1,0 1,0 1,0 1,0 2,0 2,-1l3 -5c1,-1 0,-2 -1,-2z"/>
   <path class="fil2" d="M16 68c-1,-1 -3,-1 -3,0l-3 5c-1,1 0,3 1,3 0,0 0,0 1,0 0,0 1,0 2,-1l2 -5c1,-1 1,-2 0,-2z"/>
  </g>
 </g>
</svg>
